<?xml version="1.0" encoding="utf-8"?>
<!-- Generator: Adobe Illustrator 24.3.0, SVG Export Plug-In . SVG Version: 6.00 Build 0)  -->
<svg version="1.1" id="logo" xmlns="http://www.w3.org/2000/svg" xmlns:xlink="http://www.w3.org/1999/xlink" x="0px" y="0px"
	 viewBox="0 0 342 390.5" style="enable-background:new 0 0 342 390.5;" xml:space="preserve">
<g transform="matrix(1,0,0,-1,-124.2,606.4)">
	<path d="M464.6,215.9h-85.1c-1.9,0-7.4,18.3-16.7,54.9c-32.3,112.4-50.9,178.1-55.7,197.2l54.9,54.1h1.6
		c7.4-23.1,41.6-124.9,102.6-305.4C466.2,216.7,464.6,215.9,464.6,215.9z M300.8,491.1H300c-1.1,4.5-1.6,7.2-1.6,8v1.6
		c15.9,16.7,33.7,34.5,53.3,53.3c2.1-3.2,3.2-5.8,3.2-8v-0.8C335,524.7,317,506.7,300.8,491.1z M197.4,429h-0.8
		c10.9,34.5,17.5,52.2,19.9,53.3l119.3,118.5c1.3,0,4.2-8.5,8.7-25.4L197.4,429z M219.7,494.3h-0.8c24.4,74,37.4,111.3,39,112.1
		h73.2v-0.8C304,578,266.9,540.9,219.7,494.3z M175.9,366.2h-0.8c2.7,13,9,23.1,19.1,30.2c31,31.8,62,62.8,93,93h0.8
		c-1.9-10.9-6.1-19.1-12.7-24.7L175.9,366.2z M125.8,215.9l-1.6,0.8c22.8,67.9,35,102.9,36.6,105l109.8,108.9v-0.8
		c-4.2-16.7-24.7-88-61.2-213.9L125.8,215.9L125.8,215.9z"/>
</g>
</svg>
